<?xml version="1.0" encoding="UTF-8" standalone="no"?>
<!DOCTYPE svg PUBLIC "-//W3C//DTD SVG 1.1//EN" "http://www.w3.org/Graphics/SVG/1.1/DTD/svg11.dtd">
<svg width="100%" height="100%" viewBox="0 0 943 477" version="1.1" xmlns="http://www.w3.org/2000/svg" xmlns:xlink="http://www.w3.org/1999/xlink" xml:space="preserve" xmlns:serif="http://www.serif.com/" style="fill-rule:evenodd;clip-rule:evenodd;stroke-linejoin:round;stroke-miterlimit:1.41421;">
    <g transform="matrix(1,0,0,1,-361.723,-1290.95)">
        <path d="M1217.69,1624.17C1218.46,1627.82 1218.77,1631.58 1218.61,1635.35C1238.05,1637.08 1255.92,1644.85 1269.48,1658.08C1273.85,1662.33 1277.64,1667.28 1280.64,1672.61C1293.05,1671.52 1302.35,1665.52 1303.81,1651.7C1307.53,1616.29 1251.05,1616.71 1217.69,1624.17Z" style="fill:rgb(185,114,145);fill-rule:nonzero;"/>
        <path d="M1205.59,1504.71C1183.29,1527.28 1179.79,1560.97 1180.34,1591.47C1183.9,1591.45 1187.4,1591.94 1190.73,1592.95C1190.79,1592.8 1190.82,1592.64 1190.94,1592.48C1203.46,1574.99 1210.65,1554.41 1221.64,1535.96C1221.88,1535.56 1222.49,1535.91 1222.27,1536.31C1213.34,1552.42 1207.95,1570.36 1199.17,1586.57C1213.07,1566.94 1228.55,1547.93 1244.77,1530.39C1245.84,1529.23 1247.63,1531.01 1246.5,1532.12C1226.96,1551.19 1211.68,1572.71 1197.48,1595.88C1199.35,1596.93 1201.12,1598.13 1202.78,1599.48C1228.31,1584.6 1257.85,1566.99 1274.43,1541.68C1278.57,1534.69 1296.88,1507.09 1292.04,1499.18C1267.53,1459.15 1217.79,1492.08 1205.59,1504.71Z" style="fill:rgb(185,114,145);fill-rule:nonzero;"/>
        <path d="M1146.54,1588.58C1149.55,1592.95 1137.83,1573.52 1137.83,1573.52C1132.1,1570.41 1126.05,1567.89 1120.58,1565.75C1103.62,1559.11 1085.3,1556.24 1067.26,1554.54C1056.26,1553.5 1045.05,1552.99 1033.79,1553.1C1035.8,1555.21 1037.71,1557.42 1039.64,1559.65C1046.83,1559.83 1054,1560.18 1061.1,1560.7C1078.71,1561.99 1096.18,1565.02 1113,1570.44C1125.89,1574.6 1135.87,1581.63 1146.54,1588.58Z" style="fill:rgb(126,134,92);fill-opacity:0.501961;fill-rule:nonzero;"/>
        <path d="M1171.13,1592.64C1172.93,1592.18 1174.75,1591.88 1176.55,1591.69C1171.9,1563.92 1188.41,1503.14 1148.77,1519.27C1125.81,1528.61 1127.82,1552.37 1137.83,1573.52C1137.87,1573.6 1146.53,1588.58 1146.54,1588.58C1149.55,1592.95 1152.76,1596.95 1155.97,1600.36C1159.29,1597.59 1163.15,1595.38 1167.39,1593.83C1167.19,1593.63 1167.01,1593.36 1166.89,1593.02C1161.7,1578.49 1158.88,1563.44 1155.54,1548.42C1155.34,1547.56 1156.61,1547.2 1156.85,1548.06C1160.92,1562.59 1163.73,1577.91 1170.37,1591.56C1170.6,1592.03 1170.61,1592.45 1170.54,1592.83C1170.74,1592.77 1170.93,1592.69 1171.13,1592.64Z" style="fill:rgb(185,114,145);fill-rule:nonzero;"/>
        <path d="M1179.41,1673.71C1178.61,1673.74 1177.8,1673.77 1176.99,1673.75C1175.86,1673.74 1174.76,1673.66 1173.67,1673.56C1177.54,1680.52 1177.74,1690.84 1177.93,1698.05C1178.25,1710.63 1177.99,1723.26 1176.43,1735.77C1176.33,1736.61 1174.87,1736.44 1174.94,1735.59C1176.62,1716.08 1176.88,1690.69 1168.34,1672.7C1168.34,1672.69 1168.34,1672.69 1168.34,1672.68C1166.82,1672.33 1165.34,1671.9 1163.91,1671.38C1163.2,1684.89 1166.17,1698.4 1166.38,1711.92C1166.39,1712.32 1165.78,1712.32 1165.77,1711.93C1165.36,1698.16 1162.19,1684.67 1162.54,1670.87C1156.66,1668.48 1151.64,1664.71 1147.86,1659.93C1137.29,1679.92 1116.29,1693.08 1103.62,1711.79C1103.14,1712.52 1101.95,1711.86 1102.44,1711.12C1114.27,1693.06 1129.89,1677.79 1142.94,1660.6C1129.61,1667.89 1117.87,1678.48 1108.65,1690.39C1108.22,1690.95 1107.24,1690.2 1107.66,1689.64C1117.73,1676.08 1129.99,1663.64 1145.13,1655.92C1143.49,1653.1 1142.23,1650.02 1141.42,1646.74C1101.27,1669.05 1057.01,1696.28 1067.83,1750.16C1076.19,1796.7 1111.25,1734.28 1120.08,1717.77C1127.41,1704.43 1138.49,1690.56 1148,1676.74C1135.4,1707.34 1132.84,1752.87 1163.84,1758.8C1187.29,1762.29 1198.01,1734.61 1197.07,1717.04C1196.79,1698.86 1188.11,1686.42 1179.41,1673.71Z" style="fill:rgb(185,114,145);fill-rule:nonzero;"/>
        <path d="M1218.16,1639.93C1218.13,1640.07 1218.11,1640.22 1218.09,1640.36C1230.9,1641.95 1241.32,1651.21 1249.78,1660.35C1250.52,1661.15 1249.36,1662.32 1248.59,1661.54C1240.23,1653.13 1229.77,1644.48 1217.46,1643.6C1216.95,1645.73 1216.31,1647.78 1215.53,1649.72C1215.55,1649.74 1215.57,1649.75 1215.59,1649.77C1229.5,1665.88 1250.44,1678.9 1259.68,1698.37C1260.18,1699.42 1258.64,1700.35 1258.1,1699.29C1247.95,1679.33 1225.61,1671.1 1214.08,1652.87C1212.99,1655.02 1211.71,1657.04 1210.26,1658.9C1219.7,1669.5 1231.47,1678.3 1238.41,1690.86C1238.75,1691.49 1237.82,1692.04 1237.44,1691.42C1229.99,1679.22 1217.86,1671.46 1208.63,1660.85C1204,1666.02 1197.94,1669.81 1190.74,1671.92C1200.51,1700.09 1217.57,1730.04 1237.96,1736.15C1249.77,1739.68 1262.04,1735.09 1274.41,1722.5C1290.79,1705.15 1283.14,1677.79 1266.26,1661.37C1253.47,1648.89 1236.58,1641.56 1218.16,1639.93Z" style="fill:rgb(185,114,145);fill-rule:nonzero;"/>
        <path d="M1204.98,1635.24C1205.17,1635.51 1205.34,1635.78 1205.49,1636.06C1205.49,1636.02 1205.48,1635.97 1205.48,1635.92C1205.49,1635.67 1205.5,1635.42 1205.51,1635.17C1205.33,1635.2 1205.15,1635.22 1204.98,1635.24Z" style="fill:rgb(166,133,66);fill-rule:nonzero;"/>
        <path d="M1191.87,1612.59C1191.8,1612.4 1191.74,1612.2 1191.69,1612.01C1191.68,1612.2 1191.66,1612.4 1191.6,1612.59C1191.69,1612.59 1191.78,1612.58 1191.87,1612.59Z" style="fill:rgb(166,133,66);fill-rule:nonzero;"/>
        <path d="M1206.27,1614.31C1206.33,1614.3 1206.38,1614.31 1206.44,1614.3C1206.34,1614.14 1206.25,1613.99 1206.15,1613.83C1206.14,1614.01 1206.1,1614.16 1206.08,1614.34C1206.14,1614.33 1206.2,1614.33 1206.27,1614.31Z" style="fill:rgb(166,133,66);fill-rule:nonzero;"/>
        <path d="M1179.71,1616.34C1179.65,1616.22 1179.57,1616.11 1179.52,1615.98C1179.55,1616.07 1179.59,1616.15 1179.64,1616.28C1179.66,1616.3 1179.69,1616.32 1179.71,1616.34Z" style="fill:rgb(166,133,66);fill-rule:nonzero;"/>
        <path d="M1211.51,1633.49C1211.59,1633.61 1211.66,1633.74 1211.74,1633.86C1211.74,1633.4 1211.72,1632.94 1211.71,1632.48C1211.53,1632.67 1211.32,1632.84 1211.12,1633.02C1211.25,1633.17 1211.4,1633.3 1211.51,1633.49Z" style="fill:rgb(166,133,66);fill-rule:nonzero;"/>
        <path d="M1187.5,1616.69C1187.4,1615.94 1187.53,1615.28 1187.81,1614.71C1187.16,1614.6 1186.54,1614.34 1186.05,1613.94C1186.13,1614.29 1186.19,1614.64 1186.24,1614.99C1186.31,1615.52 1186.18,1616.03 1185.95,1616.49C1186.47,1616.44 1187,1616.52 1187.5,1616.69Z" style="fill:rgb(166,133,66);fill-rule:nonzero;"/>
        <path d="M1196.79,1603.61C1196.22,1603.2 1195.65,1602.81 1195.06,1602.44C1195.27,1602.95 1195.34,1603.5 1195.27,1604.05C1195.68,1603.86 1196.11,1603.7 1196.58,1603.62C1196.65,1603.61 1196.71,1603.62 1196.79,1603.61Z" style="fill:rgb(166,133,66);fill-rule:nonzero;"/>
        <path d="M1197.96,1610.9L1197.96,1610.9C1197.95,1610.89 1197.95,1610.89 1197.94,1610.88C1197.9,1610.86 1197.86,1610.85 1197.79,1610.81C1197.87,1610.85 1197.92,1610.88 1197.96,1610.9Z" style="fill:rgb(166,133,66);fill-rule:nonzero;"/>
        <path d="M1191.52,1638.88C1191.63,1639.13 1191.71,1639.4 1191.77,1639.69C1193.33,1638.17 1195.33,1637.91 1197.1,1638.55C1196.86,1637.68 1196.81,1636.81 1197.05,1635.99C1195.95,1635.5 1195.13,1634.5 1194.81,1633.32C1193.05,1633.17 1191.36,1632.71 1190.02,1631.86C1189.92,1632.01 1189.82,1632.16 1189.69,1632.3C1193.28,1632.06 1194.75,1637.35 1191.52,1638.88Z" style="fill:rgb(166,133,66);fill-rule:nonzero;"/>
        <path d="M1189.78,1606.53C1189.96,1606.69 1190.16,1606.84 1190.3,1607.09C1190.67,1607.73 1190.7,1608.53 1190.44,1609.22C1190.91,1609.55 1191.27,1610.03 1191.5,1610.57C1191.49,1610.4 1191.48,1610.22 1191.49,1610.06C1191.56,1608.93 1191.89,1607.78 1192.45,1606.77C1191.58,1606.91 1190.62,1606.83 1189.78,1606.53Z" style="fill:rgb(166,133,66);fill-rule:nonzero;"/>
        <path d="M1153.09,1615.05C1153.06,1615.1 1149.03,1624.73 1149.06,1624.65C1147.58,1629.57 1146.94,1634.91 1147.31,1640.07C1148.39,1655.35 1160.91,1666.62 1177.09,1666.85C1180.74,1666.91 1184.28,1666.5 1187.6,1665.65C1198.02,1662.98 1205.7,1656.09 1209.4,1646.37C1209.2,1646.59 1208.97,1646.79 1208.67,1646.95C1207.96,1647.35 1207.26,1647.51 1206.45,1647.6C1204.82,1647.78 1203.43,1646.15 1203.41,1644.63C1203.39,1643.16 1204.35,1642.23 1205.61,1641.7C1206.1,1641.5 1206.63,1641.44 1207.16,1641.44C1208.89,1641.45 1210.02,1642.89 1210.09,1644.37C1210.51,1643.03 1210.87,1641.66 1211.14,1640.23C1211.27,1639.56 1211.35,1638.87 1211.44,1638.19C1211.02,1638.66 1210.48,1639.03 1209.84,1639.21C1208.43,1639.6 1206.89,1638.95 1206.07,1637.8C1206.2,1638.75 1206.07,1639.73 1205.55,1640.65C1204.79,1641.98 1203.33,1642.82 1201.81,1642.84C1201.44,1642.85 1201.06,1642.8 1200.69,1642.7C1200.74,1645.12 1198.01,1647.31 1195.61,1646.15C1195.48,1646.17 1195.36,1646.19 1195.23,1646.2C1194.58,1646.26 1193.98,1646.14 1193.38,1645.93C1192.06,1645.48 1191.12,1644.44 1190.77,1643.26C1190.46,1643.51 1190.09,1643.71 1189.64,1643.83C1187.88,1644.31 1186.38,1643.23 1185.78,1641.63C1185.34,1640.45 1185.34,1639.23 1186.03,1638.14C1186.26,1637.79 1186.55,1637.5 1186.88,1637.27C1186.31,1636.07 1186.33,1634.57 1187.16,1633.53C1187.01,1633.54 1186.86,1633.58 1186.7,1633.58C1185.37,1633.52 1184.34,1632.82 1183.76,1631.87C1183.63,1631.93 1183.52,1632.01 1183.38,1632.06C1182.34,1632.47 1180.84,1632.41 1179.73,1632.3C1178.35,1632.17 1176.99,1631.7 1176.56,1630.22C1176.49,1630 1176.48,1629.78 1176.49,1629.56C1176.32,1629.77 1176.12,1629.96 1175.89,1630.11C1176.63,1631.16 1176.64,1632.86 1176.25,1633.96C1175.71,1635.46 1174.12,1636.36 1172.62,1635.51C1171.45,1634.85 1171.02,1633.3 1171.69,1632.13C1171.58,1632.31 1171.83,1631.53 1171.88,1631.38C1171.99,1630.99 1172.11,1630.63 1172.36,1630.31C1172.4,1630.25 1172.46,1630.2 1172.51,1630.15C1171.99,1629.75 1171.63,1629.11 1171.63,1628.15C1171.63,1628.08 1171.62,1628.01 1171.63,1627.94C1171.62,1627.31 1171.84,1626.76 1172.2,1626.33C1171.42,1627.05 1170.27,1627.19 1169.24,1626.81C1169.31,1626.85 1169.39,1626.89 1169.46,1626.94C1169.34,1626.89 1169.23,1626.86 1169.11,1626.84C1167.27,1626.41 1166.38,1623.77 1167.91,1622.47C1168.4,1622.04 1168.85,1621.68 1169.5,1621.52C1171.55,1621 1173.54,1622.85 1173.01,1624.95C1172.87,1625.5 1172.61,1625.93 1172.28,1626.26C1173.36,1625.05 1175.55,1624.89 1176.49,1626.61C1176.52,1626.67 1176.55,1626.73 1176.59,1626.79C1176.65,1626.91 1176.68,1627.02 1176.73,1627.13C1176.88,1626.51 1177.25,1625.9 1177.94,1625.45C1178.6,1625.02 1179.25,1624.78 1180.05,1624.83C1181.25,1624.91 1182.1,1625.61 1182.52,1626.5C1182.54,1626.49 1182.57,1626.48 1182.59,1626.48C1183.36,1626.38 1184.08,1626.74 1184.61,1627.29C1184.71,1627.21 1184.78,1627.11 1184.9,1627.04C1185.57,1626.63 1186.29,1626.37 1187.09,1626.43C1187.12,1626.43 1187.15,1626.45 1187.19,1626.45C1187.19,1625.79 1187.27,1625.13 1187.46,1624.51C1186.5,1624.87 1185.38,1624.84 1184.46,1624.32C1182.87,1623.41 1182.48,1621.71 1182.96,1620.12C1182.98,1619.97 1183.01,1619.75 1183.05,1619.47C1183.1,1619.29 1183.12,1619.11 1183.14,1618.93C1183.17,1618.74 1183.25,1618.58 1183.31,1618.41C1183.16,1618.43 1183,1618.46 1182.84,1618.47C1181.62,1618.48 1180.74,1617.9 1180.11,1617.03C1180.08,1617.01 1180.06,1616.98 1180.04,1616.96C1180.04,1616.95 1180.03,1616.95 1180.03,1616.94C1178.43,1615.31 1178.7,1612.16 1181.44,1611.3C1182.77,1610.88 1183.98,1611.29 1185.04,1612.14C1185.04,1612.14 1185.04,1612.15 1185.04,1612.15C1184.93,1611.35 1184.89,1610.61 1185.33,1609.85C1185.43,1609.67 1185.55,1609.52 1185.68,1609.37C1185.63,1609.2 1185.59,1609.02 1185.56,1608.81C1185.46,1607.99 1185.85,1607.1 1186.49,1606.59C1187.17,1606.05 1188.03,1605.85 1188.8,1606.02C1188.15,1605.56 1187.68,1604.91 1187.53,1604.07C1187.29,1604.4 1186.97,1604.65 1186.6,1604.83C1186.78,1605.8 1186.46,1606.84 1185.42,1607.4C1185.14,1607.55 1184.85,1607.66 1184.55,1607.78C1182.96,1608.42 1181.28,1606.83 1181.26,1605.3C1181.24,1604.11 1181.95,1603.29 1182.92,1602.9C1182.84,1602.5 1182.87,1602.09 1183.01,1601.68C1183.02,1601.65 1183,1601.62 1183.01,1601.59C1183.06,1601.17 1183.33,1600.76 1183.64,1600.48C1184.59,1599.6 1185.72,1599.71 1186.83,1600.17C1187.52,1600.46 1187.89,1600.99 1188.05,1601.6C1188.24,1601.37 1188.47,1601.15 1188.75,1600.94C1189.38,1600.48 1190.18,1600.28 1190.96,1600.35C1185.43,1598.1 1179.09,1597.73 1172.85,1599.33C1163.9,1601.62 1156.69,1607.44 1153.09,1615.05ZM1194.15,1649.82C1194.24,1649.82 1194.34,1649.82 1194.43,1649.83C1197,1650.02 1198,1653.18 1195.75,1654.64C1195.68,1654.7 1195.6,1654.75 1195.51,1654.78C1194,1655.56 1192.09,1654.91 1191.62,1653.19C1191.15,1651.51 1192.44,1649.87 1194.15,1649.82ZM1162.69,1645.67C1161.65,1646.27 1160.53,1645.83 1159.89,1644.92C1159.59,1644.5 1159.21,1644.15 1159,1643.67C1157.81,1640.93 1161.65,1639.32 1162.78,1642.09C1162.69,1641.85 1162.74,1641.89 1162.94,1642.19C1163.12,1642.41 1163.29,1642.63 1163.44,1642.87C1164.06,1643.79 1163.61,1645.14 1162.69,1645.67ZM1164.55,1638.69C1162.22,1638.62 1161.25,1635.52 1163.34,1634.3C1163.97,1633.92 1164.54,1633.81 1165.27,1633.74C1167.59,1633.54 1168.7,1637.24 1166.5,1638.21C1165.83,1638.5 1165.29,1638.71 1164.55,1638.69ZM1170.71,1653.43C1170.68,1653.47 1170.65,1653.51 1170.62,1653.55C1170.01,1654.33 1168.89,1654.22 1168.11,1653.89C1168.05,1653.86 1167.98,1653.83 1167.92,1653.81C1165.72,1652.86 1166.89,1649.5 1169.04,1649.47C1171.28,1649.44 1171.89,1651.91 1170.71,1653.43ZM1181.21,1659.59C1178.07,1660.39 1176.73,1655.54 1179.87,1654.74C1183.01,1653.93 1184.36,1658.78 1181.21,1659.59ZM1183.16,1651.04C1180.42,1651.74 1179.26,1647.51 1182,1646.81C1184.74,1646.11 1185.91,1650.33 1183.16,1651.04ZM1176.54,1634.81C1177.16,1634.65 1177.71,1634.69 1178.2,1634.84C1178.43,1634.69 1178.65,1634.54 1178.92,1634.45C1179.31,1634.32 1179.7,1634.28 1180.11,1634.29C1182.87,1634.4 1184.01,1638.02 1181.54,1639.49C1181.19,1639.7 1180.83,1639.88 1180.43,1639.95C1180.14,1640 1179.87,1639.99 1179.59,1639.97C1179.49,1640.09 1179.36,1640.19 1179.22,1640.29C1180.37,1640.29 1181.46,1640.76 1182.34,1641.5C1182.65,1641.76 1182.85,1642.09 1182.99,1642.44C1183.07,1642.41 1183.14,1642.37 1183.22,1642.33C1184.54,1641.73 1186.15,1642.19 1186.57,1643.7C1186.98,1645.18 1185.85,1646.49 1184.4,1646.59C1184.3,1646.6 1184.21,1646.61 1184.12,1646.61C1183.31,1646.67 1182.66,1646.23 1182.27,1645.62C1182.12,1645.77 1181.94,1645.9 1181.75,1646.01C1181.09,1646.36 1180.48,1646.57 1179.73,1646.51C1179.36,1646.48 1178.99,1646.43 1178.62,1646.36C1178.69,1646.39 1178.75,1646.41 1178.82,1646.44C1177.15,1646.58 1175.73,1644.99 1175.71,1643.4C1175.7,1642.22 1176.32,1641.39 1177.18,1640.87C1174.07,1640.7 1173.02,1635.72 1176.54,1634.81ZM1172.5,1643.4C1174.18,1643.67 1175,1646.32 1173.6,1647.41C1173.42,1647.56 1173.23,1647.7 1173.05,1647.84C1171.49,1649.05 1169.11,1648.8 1168.51,1646.64C1167.94,1644.54 1169.83,1642.97 1171.79,1643.29C1172.03,1643.33 1172.27,1643.37 1172.5,1643.4ZM1170.23,1639.95C1167.67,1640.61 1166.58,1636.66 1169.14,1636C1171.7,1635.35 1172.8,1639.3 1170.23,1639.95ZM1167.7,1632.39C1165.03,1633.07 1163.89,1628.95 1166.57,1628.26C1169.24,1627.58 1170.37,1631.7 1167.7,1632.39ZM1174.08,1622.76C1171.65,1622.79 1170.99,1620.11 1172.27,1618.46C1172.3,1618.42 1172.33,1618.38 1172.36,1618.34C1173.02,1617.49 1174.25,1617.61 1175.11,1617.97C1175.17,1618 1175.23,1618.03 1175.29,1618.05C1177.69,1619.08 1176.42,1622.73 1174.08,1622.76ZM1181.81,1620.6C1181.74,1619.89 1182.04,1620.98 1182.06,1621.12C1182.11,1621.46 1182.17,1621.79 1182.14,1622.14C1182.04,1623.64 1180.44,1624.32 1179.29,1623.34C1178.84,1622.95 1178.25,1622.75 1177.85,1622.27C1176.76,1620.96 1177.08,1618.88 1178.87,1618.39C1180.41,1617.97 1181.66,1619.13 1181.81,1620.6ZM1181.57,1610C1180.7,1611.53 1178.09,1611.76 1177.27,1610.01C1177.22,1609.91 1177.17,1609.8 1177.12,1609.69C1176.39,1608.14 1177.27,1606.43 1179.04,1606.32C1179.16,1606.31 1179.27,1606.3 1179.39,1606.29C1181.3,1606.17 1182.47,1608.43 1181.57,1610ZM1176.3,1599.09C1179.64,1598.23 1181.07,1603.4 1177.72,1604.25C1174.37,1605.11 1172.95,1599.95 1176.3,1599.09ZM1172.97,1604.92C1173.1,1604.87 1173.23,1604.81 1173.35,1604.76C1174.98,1604.06 1176.58,1604.88 1176.76,1606.7C1176.78,1606.83 1176.79,1606.96 1176.8,1607.1C1177,1609.08 1174.55,1610.24 1172.99,1609.35C1171.46,1608.48 1171.12,1605.7 1172.97,1604.92ZM1165.37,1610C1165.92,1610.15 1166.35,1610.49 1166.68,1610.92C1167.05,1609.53 1168.68,1608.83 1169.94,1609.55C1170.55,1609.89 1170.92,1610.52 1171.03,1611.17C1171.56,1610.47 1172.45,1609.99 1173.27,1609.98C1174.6,1609.96 1175.49,1610.83 1175.94,1611.99C1176.04,1612.24 1176.14,1612.49 1176.21,1612.75C1177.25,1616.24 1171.56,1617.77 1170.8,1614.24C1170.69,1613.76 1170.64,1613.28 1170.58,1612.79C1170.51,1612.88 1170.49,1612.98 1170.41,1613.06C1170.3,1613.17 1170.19,1613.27 1170.08,1613.37C1169.16,1614.23 1167.87,1614.05 1167.11,1613.33C1166.66,1614.68 1165.36,1615.26 1164,1615.06C1162.55,1614.84 1161.51,1613.68 1161.11,1612.32C1160.34,1609.74 1163.74,1608.2 1165.37,1610ZM1160.66,1619.09C1161.63,1618.89 1162.3,1618.99 1163.08,1619.64C1163.81,1620.24 1163.71,1621.25 1163.4,1622C1163.12,1622.7 1162.46,1623.01 1161.79,1623.22C1159.13,1624.02 1157.96,1619.65 1160.66,1619.09ZM1160.27,1626.85C1163.01,1626.15 1164.17,1630.38 1161.43,1631.08C1158.69,1631.78 1157.52,1627.55 1160.27,1626.85Z" style="fill:rgb(164,166,66);fill-rule:nonzero;"/>
        <path d="M1067.95,1623.15C1039,1618.26 1012.85,1605.92 982.904,1606.86C965.268,1607.41 947.973,1610.89 931.04,1615.77C938.408,1615.58 945.579,1615.93 952.008,1616.74C975.672,1619.75 998.149,1629.45 1022.21,1629.71C1022.65,1629.72 1022.66,1630.4 1022.22,1630.39C999.443,1629.91 977.949,1621.6 955.311,1620.44C943.061,1619.82 930.7,1620.05 918.511,1621.53C912.061,1622.32 905.59,1623.66 899.115,1624.68C896.945,1625.17 894.775,1625.67 892.618,1626.19C882.568,1628.62 870.309,1630.67 860.58,1634.07C847.016,1636.24 835.937,1641.27 823.598,1644.7C800.48,1651.13 778.12,1657.51 753.899,1656.94C749.753,1656.84 745.664,1656.61 741.605,1656.3C750.851,1659.01 759.942,1661.7 769.319,1663.9C770.325,1663.96 771.334,1664.02 772.356,1664.01C794.667,1663.77 816.1,1654.99 838.458,1659.86C839.37,1660.06 839.006,1661.42 838.103,1661.26C818.436,1657.61 799.436,1665.6 780.043,1666.52C786.802,1668.35 793.477,1670.74 799.42,1674.3C799.984,1674.64 799.503,1675.44 798.921,1675.17C788.417,1670.32 776.772,1668.27 765.41,1665.65C751.583,1663.44 737.932,1658.83 724.45,1654.27C716.902,1653.03 709.55,1651.32 702.426,1649.09C697.52,1647.44 692.636,1645.73 688.11,1643.38C677.222,1637.74 667.299,1631.72 658.509,1623.04C657.464,1622.01 656.44,1620.96 655.431,1619.9C690.158,1643.37 735.061,1645.39 775.684,1640.33C804.051,1636.8 831.846,1630.19 859.497,1623.09C898.22,1613.14 937.415,1604.74 976.655,1597.1C1012.43,1590.13 1047.32,1586.43 1083.15,1594.3C1106.55,1599.44 1130.5,1608.99 1149.06,1624.65C1147.58,1629.57 1156.69,1607.44 1153.09,1615.05C1143.78,1604.56 1130.93,1596.81 1118.49,1591.01C1104.56,1584.52 1089.75,1579.74 1074.61,1576.72C1048.74,1567.01 1023.04,1555.12 1003.4,1536.66C984.721,1519.1 977.658,1495.59 979.28,1470.46C980.057,1458.45 986.783,1449.69 994.666,1441.7C992.307,1440.72 990.148,1439.36 988.342,1437.58C981.475,1445.12 975.632,1453.45 972.883,1463.26C966.719,1485.25 974.752,1513.35 986.408,1532.12C998.788,1552.04 1019.18,1564.34 1041.58,1572.96C978.413,1571.11 917.329,1598.89 857.258,1614.16C809.394,1626.33 758.734,1638.59 709.161,1630.55C670.541,1624.28 639.361,1601.45 623.78,1567.95C622.78,1565.13 621.855,1562.28 621.017,1559.4C616.043,1542.26 617.45,1523.64 620.819,1506.32C621.223,1504.25 621.731,1502.05 622.286,1499.81C618.833,1493.39 615.9,1486.84 613.617,1479.92C613.482,1480.23 613.334,1480.52 613.206,1480.83C601.373,1503.65 599.87,1535.06 604.128,1556.99C609.434,1584.32 624.193,1609.51 643.952,1628.77C656.453,1640.95 671.169,1649.23 686.853,1655.59C705.408,1665.07 726.183,1671.23 745.928,1675.69C758.521,1678.54 771.191,1681.17 783.681,1684.43C787.704,1685.49 825.558,1700.31 818.399,1682.75C817.103,1679.57 815.23,1676.72 812.945,1674.19C813.055,1674.21 813.165,1674.24 813.275,1674.25C828.89,1676.42 841.869,1664.8 857.178,1667.82C857.212,1667.82 857.23,1667.83 857.263,1667.84C857.209,1667.77 857.158,1667.7 857.103,1667.61C846.957,1649.63 826.624,1655.24 806.647,1657.58C812.316,1655.55 839.678,1647.44 845.397,1645.52C848.533,1644.81 851.673,1644.14 854.83,1643.56C872.021,1640.41 892.666,1638.97 908.458,1647.88C917.461,1652.96 928.403,1665.29 923.118,1676.11C921.923,1678.56 919.951,1680.14 917.727,1680.91C919.01,1679.05 919.888,1676.65 920.027,1673.67C920.766,1657.76 897.871,1657.19 897.455,1673.85C896.952,1693.96 923.994,1691.47 931.029,1677.72C933.972,1671.98 933.788,1666.36 931.681,1661.16C943.587,1674.75 940.096,1695.81 921.595,1699.27C923.619,1698.89 927.292,1700.62 929.462,1700.83C932.447,1701.11 935.451,1700.99 938.412,1700.53C943.857,1699.68 949.154,1697.72 953.764,1694.69C962.267,1689.1 966.685,1681.13 964.578,1670.8C961.238,1654.42 949.792,1642.58 935.357,1634.98C927.611,1630.9 918.97,1629.1 910.323,1628.39C910.233,1628.38 910.148,1628.38 910.058,1628.38C929.498,1625.51 946.49,1627.05 965.724,1635.65C980.73,1642.36 994.487,1648.81 1011.24,1649C1034.05,1649.25 1045.45,1631.72 1065.14,1623.81C1066.16,1623.39 1069.32,1623.38 1067.95,1623.15Z" style="fill:rgb(126,134,92);fill-opacity:0.501961;fill-rule:nonzero;"/>
        <path d="M1009.33,1500.47C1018.93,1527.26 1045.54,1545.89 1074.11,1532.87C1090.69,1525.31 1094.89,1508.88 1091.96,1492.65C1086.36,1480.56 1080.81,1469 1071.49,1458.25C1061.27,1446.43 1048.51,1434.1 1033.44,1428.53C1032.49,1430.1 1031.39,1431.58 1030.13,1432.92C1029.13,1434.15 1028.05,1435.31 1026.89,1436.37C1024.03,1439.01 1020.84,1440.95 1017.52,1442.15C1017.71,1442.19 1017.9,1442.26 1018.07,1442.42C1037.14,1459.89 1050.92,1482.21 1073.16,1496.21C1073.96,1496.71 1073.23,1497.86 1072.41,1497.44C1049.43,1485.52 1034.93,1461.83 1016.6,1444.25C1027.38,1464.48 1042.72,1482.97 1048.47,1505.44C1048.63,1506.05 1047.72,1506.26 1047.53,1505.68C1040.18,1483.1 1024.49,1465.28 1013.47,1444.65C1013.17,1444.11 1013.27,1443.6 1013.54,1443.2C1013.46,1443.21 1013.38,1443.24 1013.29,1443.25C1013.14,1443.28 1012.99,1443.28 1012.84,1443.31C1014.67,1453.52 1016.41,1462.98 1021.51,1472.34C1021.96,1473.15 1020.71,1473.84 1020.25,1473.03C1015.31,1464.22 1011.8,1453.68 1010.7,1443.55C1005.08,1443.98 999.531,1442.91 994.538,1440.61C996.178,1446.02 997.501,1451.52 998.719,1457.04C1001.93,1471.64 1004.27,1486.34 1009.33,1500.47Z" style="fill:rgb(185,114,145);fill-rule:nonzero;"/>
        <path d="M1016.35,1442.54C1016.12,1442.61 1015.88,1442.67 1015.64,1442.73C1015.79,1442.85 1015.92,1443.01 1016.03,1443.2C1016.05,1442.96 1016.17,1442.73 1016.35,1442.54Z" style="fill:rgb(166,133,66);fill-rule:nonzero;"/>
        <path d="M977.603,1402.93C977.196,1402.49 976.792,1402.04 976.388,1401.59C976.781,1402.08 977.156,1402.58 977.54,1403.08C977.558,1403.03 977.58,1402.98 977.603,1402.93Z" style="fill:rgb(166,133,66);fill-rule:nonzero;"/>
        <path d="M921.447,1383.37C922.503,1382.94 923.566,1382.58 924.641,1382.31C935.936,1379.41 946.53,1384.95 956.124,1398.77L956.171,1398.83L956.212,1398.9C961.275,1406.75 964.29,1415.31 965.278,1424.18C971.087,1427.26 977.141,1429.97 983.384,1432.3C981.798,1430.5 980.378,1428.52 979.188,1426.35C975.661,1419.94 974.886,1412.75 976.623,1406C976.529,1405.95 976.43,1405.92 976.349,1405.85C960.817,1393.2 946.153,1377.37 935.916,1360.14C935.819,1359.98 936.066,1359.85 936.165,1360C945.321,1373.73 958.89,1383.15 970.14,1394.62C953.782,1376.14 938.645,1356.47 931.691,1332.4C931.458,1331.59 932.706,1331.29 932.944,1332.09C941.152,1359.63 960.229,1378.92 979.296,1399.25C980.909,1396.29 983.047,1393.52 985.71,1391.07C986.242,1390.59 986.779,1390.12 987.332,1389.67C978.962,1377.91 973.948,1364.66 969.431,1350.99C969.296,1350.59 969.966,1350.32 970.127,1350.71C975.487,1363.82 982.208,1375.97 990.74,1387.25C995.722,1384.16 1001.32,1382.56 1006.97,1382.57C1009.57,1376.5 1011.63,1370.08 1014.09,1363.95C1014.45,1363.04 1015.91,1363.45 1015.57,1364.39C1013.44,1370.29 1010.75,1376.46 1009.33,1382.66C1010.56,1382.77 1011.79,1382.94 1013.01,1383.2C1018.66,1366.17 1029.98,1352.2 1039.68,1337.14C1040.23,1336.28 1041.51,1337.08 1041.03,1337.97C1032.75,1353.12 1020.78,1367.19 1015.95,1383.95C1017.56,1384.46 1019.1,1385.11 1020.57,1385.88C1025.92,1369.82 1043.5,1357.41 1051.97,1343.55C1052.24,1343.11 1052.89,1343.52 1052.64,1343.96C1043.99,1359.32 1033.36,1373.16 1024.65,1388.47C1028.66,1391.52 1031.89,1395.61 1034.08,1400.34C1040.69,1396.15 1047.12,1391.58 1053.27,1386.24C1070.97,1370.86 1090.36,1344.19 1071.75,1321.97C1062.6,1311.03 1048.44,1305.54 1034.43,1308.29C1020.57,1311.01 1010.4,1323.97 1003.42,1335.21C997.25,1345.13 992.959,1356.49 989.583,1367.89C987.454,1361.48 985.236,1355.1 982.808,1348.79C975.419,1329.6 961.326,1298.25 935.638,1302.98C901.931,1309.18 906.437,1349.5 916.277,1372.9C917.813,1376.56 919.547,1380.04 921.447,1383.37Z" style="fill:rgb(185,114,145);fill-rule:nonzero;"/>
        <path d="M1036.69,1408.6C1037.03,1410.47 1037.23,1412.39 1037.27,1414.36C1037.34,1418.39 1036.45,1422.38 1034.78,1425.98C1051.37,1429.85 1065.39,1440.43 1076.48,1453.5C1079.82,1457.43 1083.56,1462.09 1087.09,1467.19C1099.82,1460.44 1110.13,1448.45 1107.83,1435.31C1104.31,1415.22 1074.91,1411.44 1058.92,1409.68C1051.94,1408.92 1044.37,1408.49 1036.69,1408.6Z" style="fill:rgb(185,114,145);fill-rule:nonzero;"/>
        <path d="M985.236,1423.02C990.591,1432.75 1001.44,1438.14 1012.22,1436.43C1015.7,1435.89 1019.16,1434.11 1022.22,1431.29C1023.15,1430.43 1024.03,1429.49 1024.84,1428.49L1025.04,1428.26C1025.69,1427.58 1026.27,1426.83 1026.8,1426.06C1026.66,1425.49 1026.97,1424.8 1027.62,1424.78C1029.43,1421.69 1030.44,1418.07 1030.37,1414.48C1030.25,1407.71 1027.8,1401.56 1023.78,1397.05C1023.83,1398.13 1023.43,1399.08 1022.73,1399.86C1023.82,1400.46 1024.59,1401.6 1024.7,1402.94C1025.44,1403.05 1026.2,1403.1 1026.95,1403.21C1027.93,1403.36 1028.48,1404.53 1028.26,1405.42C1028,1406.45 1027.03,1406.88 1026.06,1406.73C1025.16,1406.6 1024.27,1406.58 1023.38,1406.41C1023.33,1406.4 1023.31,1406.37 1023.26,1406.36C1022.94,1406.61 1022.56,1406.82 1022.11,1406.94C1021.46,1407.12 1020.87,1407.06 1020.31,1406.9C1020.66,1408.84 1018.9,1410.88 1016.7,1410.35C1015.62,1410.09 1014.88,1409.25 1014.6,1408.26C1014.45,1408.33 1014.34,1408.43 1014.16,1408.48C1012.21,1408.98 1010.99,1407.25 1011.12,1405.72C1011.09,1405.74 1011.07,1405.77 1011.04,1405.78C1010.89,1405.85 1009.63,1406.47 1010.15,1406.17C1009.25,1406.68 1008.33,1406.62 1007.58,1406.24C1007.72,1407.3 1007.26,1408.41 1005.92,1408.75C1003.28,1409.43 1001.97,1405.93 1003.74,1404.55C1003.6,1403.13 1004.99,1402.22 1006.28,1402.28C1006.48,1401.76 1006.76,1401.32 1007.12,1400.97C1006.89,1400.62 1006.71,1400.23 1006.57,1399.83C1006.52,1399.83 1006.46,1399.82 1006.41,1399.82C1006.16,1399.99 1005.88,1400.15 1005.53,1400.24C1005.38,1400.28 1005.25,1400.25 1005.11,1400.26C1005.31,1401.46 1004.82,1402.74 1003.3,1403.13C1001.6,1403.57 1000.42,1402.42 1000.11,1401.1C998.932,1401.64 997.452,1400.9 997.11,1399.66C996.757,1398.37 997.775,1396.76 999.217,1396.86C999.307,1396.87 999.401,1396.87 999.495,1396.88C1000.46,1396.95 1001.14,1397.54 1001.43,1398.27C1001.59,1398.19 1001.71,1398.09 1001.9,1398.04C1002.03,1398.01 1002.13,1398.03 1002.26,1398.02C1002.11,1397.21 1002.29,1396.39 1002.86,1395.79C1002.62,1395.66 1002.41,1395.5 1002.23,1395.3C1001.22,1396.22 999.396,1396.01 998.96,1394.43C998.459,1392.61 1000.6,1391.28 1002.04,1392.31C1002.3,1391.96 1002.66,1391.67 1003.2,1391.53C1003.78,1391.38 1004.27,1391.48 1004.69,1391.68C1004.91,1390.73 1005.61,1389.94 1006.5,1389.53C1000.71,1389.64 995.013,1391.9 990.385,1396.15C984.274,1401.77 979.265,1412.18 985.236,1423.02ZM1022.75,1418.91C1020.92,1419.38 1020.13,1416.54 1021.97,1416.07C1023.81,1415.6 1024.6,1418.44 1022.75,1418.91ZM1019.78,1409.91C1020.3,1409.63 1020.78,1409.49 1021.38,1409.45C1022.55,1409.38 1023.39,1410.27 1023.65,1411.29C1023.9,1410.97 1024.22,1410.71 1024.71,1410.58C1027.32,1409.91 1028.42,1413.93 1025.82,1414.6C1024.55,1414.93 1023.65,1414.14 1023.35,1413.17C1023.16,1413.43 1022.93,1413.67 1022.58,1413.83C1022.04,1414.09 1021.57,1414.23 1020.96,1414.24C1018.69,1414.25 1017.69,1411.03 1019.78,1409.91ZM1019.23,1419.29C1021.61,1418.68 1022.62,1422.36 1020.24,1422.97C1017.86,1423.58 1016.85,1419.9 1019.23,1419.29ZM1012.08,1430.49C1009.59,1431.13 1008.53,1427.29 1011.02,1426.65C1013.51,1426.01 1014.57,1429.86 1012.08,1430.49ZM1014.52,1423.86C1012.84,1424.29 1012.12,1421.69 1013.81,1421.26C1015.49,1420.83 1016.21,1423.43 1014.52,1423.86ZM1014.91,1410.06C1014.97,1410.08 1015.03,1410.11 1015.09,1410.15C1016.01,1410.65 1016.43,1411.97 1015.84,1412.88C1015.7,1413.1 1015.54,1413.31 1015.37,1413.51C1014.15,1415.07 1011.65,1413.72 1011.63,1411.99C1011.61,1410.17 1013.44,1409.43 1014.91,1410.06ZM1013.75,1415.93C1013.78,1416.07 1013.82,1416.2 1013.86,1416.34C1014.46,1416.59 1014.89,1417.21 1014.75,1418.08C1014.7,1418.41 1014.56,1418.72 1014.42,1419.03C1014.2,1420.78 1011.35,1421.32 1010.84,1419.29C1010.64,1418.49 1010.44,1417.69 1010.25,1416.89C1009.68,1414.62 1013.15,1413.66 1013.75,1415.93ZM1007.46,1408.15C1010.45,1407.39 1011.72,1412 1008.73,1412.76C1005.74,1413.53 1004.47,1408.92 1007.46,1408.15ZM1006.4,1413.23C1008.6,1412.67 1009.54,1416.06 1007.34,1416.63C1005.13,1417.19 1004.2,1413.8 1006.4,1413.23ZM1004.81,1423.58C1006.61,1423.38 1007.72,1424.97 1007.01,1426.59C1006.71,1427.27 1006.01,1427.49 1005.34,1427.43C1004.15,1427.88 1002.89,1426.73 1002.88,1425.57C1002.86,1424.42 1003.75,1423.7 1004.81,1423.58ZM998.04,1404.59C998.898,1403.91 999.581,1403.7 1000.67,1403.88C1002.5,1404.18 1003.26,1406.51 1002.42,1407.99C1001.52,1409.57 999.29,1409.87 998,1408.58C996.984,1407.57 996.825,1405.55 998.04,1404.59ZM997.582,1420.5C999.469,1420.02 1000.27,1422.93 998.382,1423.41C996.495,1423.89 995.69,1420.98 997.582,1420.5ZM994.522,1399.3C996.431,1398.81 997.245,1401.76 995.333,1402.25C993.426,1402.73 992.613,1399.79 994.522,1399.3ZM994.04,1409C995.859,1408.53 996.634,1411.34 994.815,1411.8C992.995,1412.27 992.22,1409.46 994.04,1409ZM991.8,1420.89C989.98,1421.35 989.205,1418.55 991.023,1418.08C992.842,1417.61 993.619,1420.42 991.8,1420.89ZM990.079,1407.23C988.084,1407.74 987.23,1404.66 989.234,1404.14C991.231,1403.63 992.083,1406.71 990.079,1407.23Z" style="fill:rgb(164,166,66);fill-rule:nonzero;"/>
        <path d="M1010.14,1389.77C1009.85,1389.73 1009.57,1389.68 1009.28,1389.65C1009.49,1389.75 1009.68,1389.87 1009.85,1390.03C1009.94,1389.94 1010.02,1389.86 1010.12,1389.79C1010.12,1389.78 1010.13,1389.78 1010.14,1389.77Z" style="fill:rgb(166,133,66);fill-rule:nonzero;"/>
        <path d="M1006.96,1396.17C1007.2,1395.81 1007.51,1395.48 1007.9,1395.21C1007.9,1395.21 1007.9,1395.21 1007.91,1395.2C1007.21,1395.3 1006.5,1395.16 1005.89,1394.71C1005.83,1394.87 1005.73,1395 1005.63,1395.13C1006.19,1395.33 1006.65,1395.69 1006.96,1396.17Z" style="fill:rgb(166,133,66);fill-rule:nonzero;"/>
        <path d="M863.376,1444.53C865.611,1425.72 860.957,1405 849.401,1389.85C849.284,1389.7 849.419,1389.52 849.574,1389.48C849.653,1389.45 849.738,1389.47 849.797,1389.54C863.06,1404.94 869.579,1424.79 867.952,1445.07C869.408,1445.34 870.827,1445.72 872.224,1446.16L872.606,1445.49C873.606,1443.74 874.621,1441.95 875.648,1440.14C876.497,1438.65 877.356,1437.14 878.218,1435.63C886.786,1409.67 886.568,1384.13 874.35,1356.47C868.128,1341.9 846.971,1322.38 829.777,1326.78C825.078,1327.99 820.675,1330.98 816.95,1336.35C800.405,1362.34 851.373,1408.23 856.495,1444.65C858.823,1444.41 861.123,1444.38 863.376,1444.53Z" style="fill:rgb(185,114,145);fill-rule:nonzero;"/>
        <path d="M768.249,1467.56C782.415,1473.43 801.5,1473.8 819.59,1473.04C820.212,1471.05 820.998,1469.14 821.942,1467.32C821.931,1467.31 821.924,1467.32 821.913,1467.31C810.229,1463.66 799.451,1457.22 787.664,1453.99C787.529,1453.95 787.556,1453.78 787.666,1453.75C787.684,1453.75 787.705,1453.75 787.727,1453.75C799.788,1456.08 810.955,1460.7 822.795,1463.83C823.172,1463.93 823.428,1464.13 823.635,1464.36C823.759,1464.17 823.893,1463.99 824.021,1463.8C823.707,1463.72 823.392,1463.58 823.103,1463.3C807.753,1448.62 787.37,1440.17 768.577,1430.85C767.871,1430.5 768.2,1429.61 768.808,1429.45C768.972,1429.41 769.152,1429.42 769.343,1429.51C788.99,1438.69 809.731,1445.47 826.026,1460.38C826.148,1460.49 826.197,1460.62 826.282,1460.73C827.27,1459.53 828.322,1458.37 829.44,1457.28C824.067,1453.18 820.94,1446.81 815.652,1442.43C809.182,1437.07 802.07,1432.6 795.978,1426.78C795.526,1426.35 795.85,1425.78 796.311,1425.67C796.513,1425.61 796.742,1425.65 796.944,1425.82C802.861,1430.71 809.735,1434.13 815.733,1438.88C821.664,1443.57 825.959,1450.74 832.316,1454.72C834.079,1453.28 835.955,1451.98 837.914,1450.82C825.909,1416.03 797.78,1371.26 759.309,1381.12C755.413,1382.12 751.417,1383.67 747.318,1385.86C708.764,1408.4 738.048,1454.72 768.249,1467.56Z" style="fill:rgb(185,114,145);fill-rule:nonzero;"/>
        <path d="M754.004,1569.11C778.343,1562.88 805.686,1530.39 825.028,1506.43C823.754,1504.44 822.615,1502.36 821.653,1500.18C808.074,1508.72 792.542,1513.68 779.576,1523.24C779.497,1523.3 779.419,1523.34 779.34,1523.36C778.657,1523.53 777.954,1522.48 778.598,1521.97C791.504,1511.79 806.193,1504.74 820.152,1496.23C819.874,1495.4 819.624,1494.57 819.397,1493.73C804.978,1499.89 789.26,1503.01 775.388,1510.45C775.354,1510.47 775.323,1510.48 775.289,1510.49C774.887,1510.59 774.577,1510 774.99,1509.76C788.967,1501.73 804.07,1496.97 818.635,1490.21C818.109,1487.29 817.923,1484.46 818.058,1481.75C804.04,1482.82 787.599,1485.23 771.967,1489.24C734.618,1498.81 701.88,1517.46 717.766,1548.56C727.591,1567.83 740.326,1572.62 754.004,1569.11Z" style="fill:rgb(185,114,145);fill-rule:nonzero;"/>
        <path d="M896.593,1587.5C903.184,1585.81 910.467,1580.59 918.76,1573.06C935.406,1557.71 959.101,1538.97 939.224,1510.82C934.363,1503.99 922.677,1498.17 909.275,1494.55C909.632,1494.47 909.999,1494.38 910.358,1494.29C947.65,1484.73 976.06,1438.18 952.345,1401.39C943.242,1388.29 934.347,1384.57 925.781,1386.77C907.475,1391.45 890.684,1423.13 876.599,1447.77C879.865,1449.25 882.916,1451.18 885.647,1453.57C891.926,1448.22 897.969,1442.41 902.825,1435.73C902.942,1435.57 903.092,1435.47 903.25,1435.43C903.812,1435.29 904.476,1435.82 904.074,1436.44C899.435,1443.65 894.547,1450.28 888.298,1456.16C889.188,1457.12 890.027,1458.13 890.83,1459.19C904.023,1448.13 917.883,1440.6 923.98,1423.3C924.088,1422.99 924.31,1422.82 924.56,1422.76C925.095,1422.62 925.735,1423 925.548,1423.7C920.619,1442.03 907.532,1451.5 893.254,1462.76C893.914,1463.86 894.53,1465.03 895.109,1466.23C895.408,1466.16 895.709,1466.08 896.003,1466.01C908.475,1462.81 918.255,1454.05 926.689,1444.62C926.779,1444.53 926.878,1444.46 926.979,1444.44C927.462,1444.32 927.958,1444.99 927.554,1445.49C919.07,1455.91 909.99,1466.12 896.732,1469.92C901.135,1481.3 901.849,1495.49 895.253,1506.89C893.64,1509.68 891.664,1512.21 889.455,1514.51C897.897,1520.4 904.762,1528.37 909.902,1537.24C910.028,1537.46 909.886,1537.65 909.7,1537.7C909.578,1537.73 909.435,1537.7 909.341,1537.56C903.723,1529.57 895.317,1522.12 886.637,1517.16C885.94,1517.75 885.244,1518.34 884.507,1518.89C894.167,1530.62 901.69,1546.76 906.867,1560.26C907.069,1560.78 906.743,1561.15 906.324,1561.26C905.908,1561.37 905.401,1561.22 905.205,1560.71C899.519,1545.99 888.205,1534.73 880.933,1521.23C877.837,1523.05 874.51,1524.46 871.019,1525.36L871.017,1525.36C866.373,1526.55 861.669,1526.82 857.042,1526.16C856.548,1526.16 856.058,1526.13 855.568,1526.1C852.239,1541.64 850.949,1557.33 848.88,1573.06C848.846,1573.31 848.685,1573.45 848.487,1573.5C848.119,1573.6 847.625,1573.37 847.642,1572.91C848.172,1557.23 848.249,1541.03 852.148,1525.71C850.973,1525.51 849.81,1525.25 848.67,1524.89C848.594,1524.87 848.522,1524.84 848.445,1524.81C843.341,1533.64 843.609,1543.46 840.354,1552.97C840.3,1553.12 840.192,1553.2 840.071,1553.24C839.811,1553.3 839.501,1553.12 839.586,1552.78C841.967,1543.6 840.06,1531.97 845.224,1523.62C843.75,1523.01 842.308,1522.33 840.911,1521.55C832.435,1534.17 831.658,1549.93 829.023,1564.55C829.001,1564.69 828.917,1564.77 828.816,1564.8C828.608,1564.85 828.322,1564.67 828.362,1564.39C830.42,1549.36 829.288,1532.64 837.612,1519.48C835.469,1518.01 833.441,1516.36 831.57,1514.53C809.124,1543.98 784.283,1587.2 805.305,1605.7C805.33,1605.73 807.626,1608.82 807.253,1608.6C810.885,1610.76 817.41,1612.38 823.028,1613.41C831.34,1614.97 838.106,1614.88 843.591,1613.48C864.428,1608.13 866.931,1583.74 866.536,1557.45C867.12,1559.02 867.758,1560.6 868.476,1562.19C876.913,1583.6 885.829,1590.26 896.593,1587.5Z" style="fill:rgb(185,114,145);"/>
        <path d="M807.253,1608.6C807.413,1608.6 805.286,1605.7 805.305,1605.7C781.736,1604.99 758.351,1608.31 734.44,1608.8C698.857,1609.53 667.862,1598.24 640.752,1575.33C635.846,1571.18 631.218,1566.72 626.894,1561.99C627.359,1564.61 627.867,1567.23 628.442,1569.84C628.693,1570.9 628.954,1571.95 629.208,1573C650.219,1594.18 678.907,1610.41 708.687,1613.72C742.234,1617.45 773.786,1607.97 807.253,1608.6Z" style="fill:rgb(126,134,92);fill-opacity:0.501961;"/>
        <path d="M850.722,1518.31C852.852,1518.97 854.988,1519.28 857.255,1519.26L857.801,1519.29C861.599,1519.87 865.472,1519.66 869.304,1518.68C872.447,1517.87 875.441,1516.58 878.186,1514.87C878.294,1514.36 878.667,1513.94 879.127,1513.83C879.304,1513.78 879.495,1513.78 879.69,1513.84C883.559,1511.13 886.874,1507.6 889.282,1503.44C896.515,1490.92 893.056,1474.17 885.901,1464.09C878.234,1453.29 865.407,1448.96 851.588,1452.5C835.775,1456.55 821.318,1471.23 825.663,1490.44C828.584,1503.35 838.655,1514.55 850.722,1518.31ZM842.332,1500.15C840.978,1500.49 840.063,1499.54 839.868,1498.48C839.554,1498.07 839.266,1497.64 838.943,1497.21C838.41,1496.51 838.839,1495.41 839.527,1495.02C840.192,1494.63 840.897,1494.81 841.464,1495.27C841.742,1495.5 841.931,1495.86 842.129,1496.18C844.005,1496.5 844.556,1499.58 842.332,1500.15ZM850.457,1508.69C848.646,1509.16 847.613,1507.24 848.157,1505.92C847.405,1506.49 846.212,1506.27 845.502,1505.71C845.435,1505.66 845.37,1505.61 845.309,1505.55C844.094,1504.43 844.743,1502.34 846.272,1501.92C847.762,1501.51 849.487,1502.96 848.957,1504.55C848.876,1504.78 848.782,1505.01 848.683,1505.23C848.881,1505.08 849.117,1504.96 849.409,1504.88C851.879,1504.25 852.931,1508.06 850.457,1508.69ZM845.938,1495.99C848.746,1495.27 849.941,1499.61 847.133,1500.33C844.325,1501.05 843.129,1496.71 845.938,1495.99ZM850.489,1496.85C850.718,1495.93 851.754,1495.22 852.695,1495.53C854.766,1496.2 857.201,1496.87 858.794,1498.41C860.369,1499.94 858.334,1502.67 856.442,1501.5C855.687,1501.02 855.006,1500.43 854.2,1500.05C853.416,1499.67 852.616,1499.36 851.805,1499.05C850.879,1498.7 850.226,1497.88 850.489,1496.85ZM856.873,1512.01C856.316,1513.03 855.134,1513.32 854.103,1513.66C851.702,1514.45 850.624,1510.37 853.074,1509.91C854.128,1509.72 855.343,1509.37 856.316,1509.99C857.008,1510.43 857.272,1511.27 856.873,1512.01ZM858.746,1506.27C855.92,1507 854.712,1502.63 857.547,1501.9C860.373,1501.18 861.581,1505.55 858.746,1506.27ZM862.615,1516.77C860.261,1517.37 859.254,1513.73 861.617,1513.12C863.972,1512.52 864.978,1516.16 862.615,1516.77ZM865.955,1511.22C863.909,1511.74 862.655,1509.87 862.88,1508.28C862.316,1508 861.856,1507.51 861.66,1506.8C861.231,1505.24 862.422,1503.78 863.99,1503.7C864.08,1503.7 864.175,1503.7 864.269,1503.71C865.927,1503.79 866.859,1505.31 866.551,1506.65C868.143,1507.69 868.336,1510.61 865.955,1511.22ZM872.622,1512.43C871.039,1511.53 871.681,1509.02 873.505,1509C873.537,1509 873.629,1509.01 873.633,1509.01C874.293,1508.89 874.843,1509.18 875.068,1509.82C875.05,1509.77 875.109,1509.9 875.115,1509.91C875.962,1511.5 874.247,1513.35 872.622,1512.43ZM875.536,1502.38C875.206,1502.46 874.939,1502.37 874.741,1502.2C873.972,1502.62 872.726,1502.42 872.351,1501.54C872.225,1501.25 872.113,1501.21 871.812,1501.02C870.396,1500.11 870.972,1498.21 872.144,1497.75C871.886,1497.22 872.012,1496.49 872.755,1496.3C873.86,1496.02 874.413,1497.42 873.761,1498.05C874.439,1498.5 875.1,1499 875.426,1499.76C875.55,1500.04 875.597,1500.33 875.608,1500.62C876.324,1500.92 876.484,1502.14 875.536,1502.38ZM881.246,1476.21C883.403,1475.65 884.321,1478.98 882.163,1479.53C881.395,1479.73 880.795,1479.42 880.424,1478.94C880.622,1479.88 880.254,1480.93 879.045,1481.24C876.507,1481.89 875.424,1477.97 877.967,1477.32C878.902,1477.08 879.634,1477.47 880.065,1478.08C879.934,1477.3 880.253,1476.46 881.246,1476.21ZM877.023,1486.17C877.162,1485.57 877.407,1484.99 877.858,1484.46C878.415,1483.82 879.341,1484 879.921,1484.47C880.963,1485.31 880.685,1486.38 880.932,1487.53C881.377,1489.56 878.982,1490.62 877.724,1489.73C877.617,1489.82 877.524,1489.93 877.387,1490.01C875.875,1490.92 873.719,1490.97 872.023,1490.65C871.904,1490.63 871.816,1490.55 871.706,1490.51C871.69,1490.5 871.672,1490.49 871.655,1490.48C871.387,1490.36 871.16,1490.2 870.969,1489.98C870.927,1489.94 870.886,1489.89 870.85,1489.84C870.778,1489.74 870.704,1489.66 870.648,1489.55C870.545,1489.36 870.478,1489.15 870.437,1488.93C870.419,1488.85 870.415,1488.78 870.408,1488.7C870.406,1488.65 870.388,1488.6 870.388,1488.55C870.388,1488.45 870.388,1488.36 870.388,1488.27C870.39,1488.18 870.424,1488.1 870.437,1488.01C870.437,1488 870.433,1487.99 870.437,1487.99C870.437,1487.98 870.441,1487.98 870.441,1487.98C870.659,1486.53 872.278,1485.79 873.469,1486.4C874.408,1486.4 875.333,1485.96 876.29,1486.01C876.556,1486.03 876.8,1486.08 877.023,1486.17ZM875.417,1494.95C873.937,1495.33 873.305,1493.05 874.79,1492.66C876.271,1492.28 876.901,1494.57 875.417,1494.95ZM879.757,1504.88C877.454,1505.47 876.313,1502.42 877.847,1501.21C877.49,1500.69 877.576,1499.85 878.362,1499.65C879.166,1499.44 879.669,1500.16 879.602,1500.8C881.493,1501.18 882.042,1504.29 879.757,1504.88ZM888.713,1488.89C886.849,1489.37 886.053,1486.5 887.92,1486.02C889.782,1485.54 890.58,1488.41 888.713,1488.89ZM885.573,1476.88C887.729,1476.33 888.651,1479.65 886.491,1480.2C884.335,1480.76 883.416,1477.43 885.573,1476.88ZM883.915,1495.65C881.83,1496.18 880.938,1492.96 883.03,1492.42C885.117,1491.89 886.008,1495.11 883.915,1495.65ZM881.392,1485.07C879.898,1484.78 879.485,1482.79 880.491,1481.78C881.383,1480.89 882.937,1481.09 883.571,1482.18C884.49,1483.77 883,1485.37 881.392,1485.07ZM877.917,1467.6C875.715,1468.16 874.781,1464.77 876.982,1464.2C879.184,1463.64 880.119,1467.03 877.917,1467.6ZM833.083,1466.64C833.797,1466.45 834.35,1466.72 834.714,1467.16C835.076,1466.87 835.543,1466.71 836.089,1466.84C836.314,1466.89 836.52,1466.97 836.732,1467.06C836.896,1464.96 839.315,1463.28 841.328,1464.55C841.386,1464.58 841.445,1464.62 841.496,1464.67C842.518,1465.41 843.019,1466.39 842.889,1467.49C843.057,1467.45 843.223,1467.42 843.399,1467.41C844.118,1465.51 845.288,1463.83 846.926,1462.61C846.76,1462.67 846.607,1462.76 846.432,1462.79C845.965,1462.87 845.5,1462.86 845.057,1462.79C844.86,1462.97 844.617,1463.12 844.291,1463.21C843.318,1463.46 842.343,1463.72 841.371,1463.98C839.082,1464.58 838.102,1461.02 840.4,1460.44C841.11,1460.26 841.817,1460.09 842.527,1459.91C842.478,1458.5 843.435,1457.32 844.794,1456.83C845.286,1456.65 845.807,1456.62 846.324,1456.58C847.22,1456.51 847.906,1456.84 848.398,1457.36C848.472,1457.08 848.571,1456.8 848.728,1456.53C849.694,1454.82 851.772,1454.37 853.455,1455.23C854.56,1455.79 855.445,1456.69 855.982,1457.78C856.229,1457.63 856.497,1457.51 856.822,1457.42C857.228,1457.32 857.606,1457.31 857.961,1457.35C857.808,1456.83 857.736,1456.3 857.871,1455.77C858.224,1454.38 859.466,1453.58 860.814,1453.57C861.722,1452.34 863.245,1451.61 864.974,1452.05C866.735,1452.49 867.904,1454.15 868.029,1455.85C868.209,1455.37 868.577,1454.96 869.231,1454.8C871.148,1454.31 872.127,1456.63 871.129,1457.82C871.362,1457.62 871.623,1457.45 871.933,1457.4C872.962,1457.25 873.804,1457.51 874.395,1458.41C874.75,1458.95 874.894,1459.55 874.907,1460.16C874.925,1459.45 875.37,1458.77 876.134,1458.56C877.331,1458.23 878.569,1459.37 878.218,1460.6C877.821,1462 876.432,1462.44 875.383,1461.38C875.069,1461.06 874.925,1460.66 874.914,1460.25C874.912,1460.79 874.793,1461.34 874.62,1461.86C874.788,1462.66 874.521,1463.54 873.919,1464.12C873.95,1464.15 873.991,1464.17 874.02,1464.2C874.827,1465.14 874.948,1466.43 874.417,1467.4C874.327,1467.71 874.202,1468 874.035,1468.26C874.338,1468.42 874.615,1468.62 874.842,1468.89C875.316,1468.03 876.273,1467.43 877.295,1467.78C878.393,1468.15 879.274,1468.89 879.831,1469.92C879.952,1470.14 880.031,1470.36 880.091,1470.57C880.125,1470.56 880.154,1470.54 880.192,1470.52C880.374,1470.09 880.734,1469.73 881.329,1469.58C883.519,1469.02 884.461,1472.28 882.419,1472.98C882.315,1473.21 882.145,1473.41 881.916,1473.58C881.107,1475.54 879.746,1477.66 877.372,1477.04C876.97,1476.93 876.727,1476.65 876.615,1476.32C876.538,1476.4 876.471,1476.5 876.386,1476.57C876.22,1477.58 875.196,1478.44 874.189,1478.45C873.232,1478.46 872.549,1477.91 872.199,1477.14C872.415,1477.67 872.359,1478.31 871.911,1478.7C873.497,1478.61 874.89,1479.66 875.397,1481.2C875.451,1481.33 875.485,1481.46 875.509,1481.6C875.916,1483.45 875.015,1484.9 873.402,1485.66C873.804,1485.54 873.95,1485.5 873.101,1485.83C873.213,1485.79 873.294,1485.71 873.402,1485.66C872.984,1485.79 872.283,1486.01 872.117,1486.01C871.776,1486.02 871.45,1485.98 871.133,1485.87C869.543,1485.37 868.487,1483.79 868.757,1482.21C868.761,1481.73 868.84,1481.27 868.995,1480.85L868.995,1480.85C868.474,1482.25 867.742,1483.54 866.776,1484.65C866.944,1484.75 867.095,1484.88 867.243,1485.01C868.034,1484.94 868.674,1485.22 869.114,1485.74C869.413,1486.02 869.667,1486.36 869.79,1486.81C870.131,1488.07 869.374,1489.62 868.036,1489.9C867.904,1489.94 867.762,1489.97 867.62,1490C866.717,1490.93 865.209,1491.33 864.035,1490.88C864.035,1491.12 864.017,1491.37 863.966,1491.64C863.842,1492.31 863.418,1492.85 862.885,1493.26C862.735,1493.72 862.521,1494.14 862.2,1494.55C862.539,1494.67 862.849,1494.87 863.112,1495.12C863.537,1495.05 863.955,1495.13 864.3,1495.34C864.228,1495.04 864.231,1494.72 864.291,1494.41C864.313,1494.02 864.435,1493.66 864.72,1493.38C865.037,1493.13 865.091,1493.09 864.92,1493.23C865.5,1492.7 866.241,1492.56 866.919,1492.71C868.2,1492.15 869.754,1492.12 870.974,1492.77C872.149,1493.39 872.247,1495.36 870.987,1495.96C870.131,1496.37 868.846,1496.65 867.741,1496.61C866.982,1497.14 865.924,1497.2 865.113,1496.58C865.124,1496.65 865.144,1496.71 865.149,1496.78C865.181,1497.73 864.884,1498.57 864.493,1499.42C864.304,1499.83 864.107,1500.25 864.136,1500.69C864.197,1501.63 863.676,1502.26 862.988,1502.56C862.714,1502.71 862.397,1502.79 862.058,1502.77C862.004,1502.76 861.964,1502.74 861.914,1502.74C861.665,1502.72 861.429,1502.67 861.195,1502.58C861.173,1502.57 861.15,1502.56 861.128,1502.56C860.98,1502.49 860.85,1502.41 860.721,1502.31C860.159,1501.94 859.78,1501.37 859.728,1500.55C859.712,1500.3 859.766,1500.07 859.86,1499.86C859.874,1499.38 859.955,1498.9 860.089,1498.43C858.975,1497.75 859.166,1496.13 859.869,1495.25C859.907,1495.2 859.943,1495.16 859.981,1495.11C859.851,1495.07 859.72,1495.04 859.599,1494.99C859.356,1494.88 859.139,1494.78 858.934,1494.68C858.166,1495.63 857.182,1496.13 855.888,1496.11C852.621,1496.07 851.35,1491.78 854.102,1490.02C853.309,1489.95 852.523,1489.75 851.809,1489.37C851.596,1489.26 851.398,1489.12 851.218,1488.96C850.519,1489.25 849.719,1489.26 848.965,1489.1C848.978,1489.11 848.987,1489.12 848.999,1489.13C850.564,1491.04 850.133,1494.04 847.505,1494.77C846.552,1495.03 845.665,1494.87 844.953,1494.43C844.841,1494.54 844.737,1494.64 844.607,1494.73C844.108,1495.07 843.61,1495.18 843.012,1495.26C841.934,1495.39 841.134,1494.46 840.788,1493.58C840.676,1493.3 840.658,1493 840.667,1492.7C840.422,1492.65 840.195,1492.57 839.989,1492.46C839.697,1492.8 839.333,1493.09 838.787,1493.23C835.829,1493.98 834.528,1489.73 837.055,1488.6C837.021,1488.52 836.979,1488.45 836.947,1488.36C836.599,1487.37 836.592,1486.26 837.172,1485.35C837.72,1484.49 838.711,1484.22 839.618,1484.68C840.155,1484.95 840.676,1485.42 841.013,1485.93C841.096,1485.99 841.184,1486.06 841.314,1486.16C841.386,1486.25 841.458,1486.34 841.525,1486.43C841.633,1486.56 841.75,1486.68 841.876,1486.79C841.948,1486.84 841.993,1486.91 842.06,1486.96C842.289,1486.35 842.709,1485.81 843.26,1485.46C843.17,1485.35 843.058,1485.26 842.972,1485.13C842.847,1484.92 842.797,1484.72 842.722,1484.51C841.264,1484.75 839.782,1484.05 838.991,1482.86C838.987,1482.89 838.991,1482.92 838.984,1482.95C838.802,1483.73 838.171,1484.08 837.481,1484.1C837.288,1484.23 837.072,1484.33 836.812,1484.39C836.388,1484.5 836.03,1484.42 835.736,1484.25C835.689,1484.26 835.641,1484.26 835.596,1484.27C835.533,1484.28 835.428,1484.29 835.235,1484.32C835.206,1484.32 835.176,1484.31 835.147,1484.31C835.064,1484.47 834.956,1484.61 834.808,1484.73C835.585,1485.15 836.515,1485.72 835.965,1486.68C835.302,1487.85 833.294,1487.92 832.162,1487.62C830.913,1487.29 830.273,1485.84 830.917,1484.7C831.281,1484.07 831.865,1483.77 832.479,1483.74C832.457,1483.57 832.418,1483.4 832.45,1483.22C832.54,1482.73 832.688,1482.24 832.841,1481.76C832.994,1481.29 833.553,1481.11 833.928,1481.46C833.955,1481.48 833.977,1481.52 834.005,1481.54C834.014,1481.54 834.016,1481.54 834.025,1481.54C833.178,1480.55 833.246,1478.75 834.885,1478.33C836.648,1477.87 837.659,1479.67 837.217,1480.98C837.606,1480.97 837.981,1481.02 838.251,1481.22C838.33,1481.28 838.388,1481.35 838.46,1481.41C838.439,1481.25 838.404,1481.1 838.408,1480.93C838.412,1480.84 838.412,1480.75 838.415,1480.65C838.435,1479.8 838.736,1479.07 839.192,1478.49C839.131,1478.4 839.067,1478.31 839.015,1478.21C838.842,1478.26 838.664,1478.3 838.485,1478.3C836.787,1478.32 835.924,1476.81 836.12,1475.3C836.266,1474.2 837.025,1473.16 838.229,1473.15C838.849,1473.14 839.312,1473.39 839.711,1473.74C840.484,1473.01 841.531,1472.64 842.568,1472.75C842.564,1472.55 842.546,1472.35 842.546,1472.15C841.854,1471.93 841.275,1471.4 841.032,1470.53C840.987,1470.37 840.983,1470.22 840.969,1470.07C840.908,1470.09 840.844,1470.1 840.785,1470.12C840.744,1470.6 840.574,1471.07 840.223,1471.42C839.154,1472.48 837.729,1472.08 836.959,1471.05C836.243,1470.7 835.546,1470.31 834.843,1469.93C834.683,1469.85 834.571,1469.73 834.459,1469.62C834.317,1469.71 834.171,1469.81 833.972,1469.86C831.884,1470.39 830.995,1467.17 833.083,1466.64ZM832.194,1472.49C834.879,1471.59 836.761,1475.89 834.234,1477.1C834.207,1477.14 834.175,1477.18 834.151,1477.23C833.852,1477.84 833.452,1478.27 832.841,1478.58C831.763,1479.13 830.424,1478.86 829.791,1477.77C828.589,1475.68 830.087,1473.19 832.194,1472.49ZM833,1496.15C831.654,1496.49 830.688,1496 830.327,1494.63C829.844,1492.81 831.839,1491.22 833.497,1492.17C835.114,1493.09 834.86,1495.69 833,1496.15ZM835.125,1499.91C835.105,1498.24 837.131,1496.81 838.643,1497.84C839.49,1498.42 840.487,1499.75 840.119,1500.89C839.971,1501.36 839.758,1501.6 839.373,1501.88C839.085,1502.1 838.684,1502.11 838.351,1502.08C838.286,1502.07 838.25,1502.07 838.2,1502.06C836.788,1502.49 835.146,1501.62 835.125,1499.91Z" style="fill:rgb(164,166,66);fill-rule:nonzero;"/>
        <path d="M872.09,1476.91C872.124,1476.97 872.144,1477.02 872.171,1477.08C872.101,1476.92 872.067,1476.74 872.031,1476.56C872.063,1476.68 872.074,1476.79 872.09,1476.91Z" style="fill:rgb(166,133,66);fill-rule:nonzero;"/>
        <path d="M869.933,1473.31C870.877,1473.75 871.645,1474.54 871.825,1475.58C871.861,1475.8 871.897,1476.01 871.929,1476.23C871.947,1476.28 871.97,1476.33 871.985,1476.39C871.978,1476.34 871.96,1476.31 871.953,1476.27C871.866,1475.53 872.099,1474.88 872.627,1474.35C872.703,1474.28 872.795,1474.22 872.883,1474.16C872.935,1474.01 872.942,1473.87 873.025,1473.72C873.054,1473.66 873.088,1473.61 873.119,1473.55C872.886,1473.65 872.65,1473.75 872.409,1473.85C871.578,1474.18 870.54,1473.77 869.927,1473.2C869.929,1473.24 869.933,1473.28 869.933,1473.31Z" style="fill:rgb(166,133,66);fill-rule:nonzero;"/>
        <path d="M837.104,1484.09C837.374,1484.16 837.478,1484.07 837.104,1484.09Z" style="fill:rgb(166,133,66);fill-rule:nonzero;"/>
        <path d="M834.09,1481.63C834.092,1481.63 834.095,1481.64 834.099,1481.64C834.101,1481.64 834.11,1481.63 834.112,1481.63C834.112,1481.62 834.108,1481.62 834.106,1481.62C834.099,1481.62 834.095,1481.63 834.09,1481.63Z" style="fill:rgb(166,133,66);fill-rule:nonzero;"/>
        <path d="M849.096,1460.39C849.074,1460.47 849.047,1460.56 849.02,1460.64C849.076,1460.6 849.132,1460.54 849.195,1460.49C849.161,1460.46 849.123,1460.42 849.096,1460.39Z" style="fill:rgb(166,133,66);fill-rule:nonzero;"/>
        <path d="M865.254,1460.64C866.225,1459.05 868.257,1458.42 869.911,1459.36C870.102,1459.47 870.226,1459.64 870.385,1459.77C870.374,1459.69 870.336,1459.62 870.336,1459.53C870.329,1459.03 870.527,1458.51 870.85,1458.1C870.675,1458.22 870.473,1458.34 870.219,1458.4C869.017,1458.71 868.179,1457.9 867.961,1456.96C867.811,1457.67 867.458,1458.34 866.854,1458.88C866.555,1459.15 866.277,1459.4 865.98,1459.63C865.899,1459.72 865.836,1459.83 865.753,1459.91C865.158,1460.55 864.304,1460.82 863.453,1460.82C863.869,1461.13 864.273,1461.46 864.663,1461.82C864.825,1461.41 865.027,1461.01 865.254,1460.64Z" style="fill:rgb(166,133,66);fill-rule:nonzero;"/>
        <path d="M869.468,1470.26C869.533,1470.12 869.596,1469.99 869.679,1469.86C869.578,1469.83 869.461,1469.83 869.366,1469.79C869.408,1469.95 869.433,1470.1 869.468,1470.26Z" style="fill:rgb(166,133,66);fill-rule:nonzero;"/>
        <path d="M596.903,1526.83C596.753,1523.78 596.889,1520.72 597.496,1517.73C597.364,1516.24 597.254,1514.76 597.191,1513.27C597.17,1512.81 597.209,1512.39 597.285,1512C596.113,1508.4 595.095,1504.74 594.248,1501.03C590.672,1485.3 591.519,1468.91 595.591,1453.39C599.172,1439.75 604.743,1424.88 614.088,1413.83C605.045,1439.97 611.397,1470.37 624.453,1494.05C631.974,1507.68 642.878,1519.52 656.486,1527.19C671.245,1535.5 688.255,1533.01 703.458,1528.14C705.421,1527.51 704.608,1524.7 702.62,1525.09C687.063,1528.11 674.511,1528.3 660.565,1520.02C648.115,1512.62 638.568,1502.58 630.908,1490.31C615.898,1466.27 608.453,1432.83 621.473,1406.45C622.489,1404.4 620.065,1402.65 618.36,1404.08C595.067,1423.66 584.768,1460.25 587.081,1489.7C588.098,1502.61 591.633,1515.08 596.903,1526.83Z" style="fill:rgb(126,134,92);fill-opacity:0.501961;fill-rule:nonzero;"/>
        <path d="M940.978,1574.75C960.876,1566.63 982.031,1562.38 1003.48,1560.58C1001.29,1558.93 999.038,1557.39 996.71,1555.98C977.067,1558.93 957.901,1564.31 940.191,1572.88C939.153,1573.38 939.901,1575.19 940.978,1574.75Z" style="fill:rgb(126,134,92);fill-opacity:0.501961;fill-rule:nonzero;"/>
        <path d="M857.264,1667.84C857.96,1668.82 858.54,1668.13 857.264,1667.84Z" style="fill:rgb(166,133,66);fill-rule:nonzero;"/>
        <path d="M1111.23,1324.48C1133.09,1310.02 1164.86,1311.3 1185.53,1326.97C1199.5,1337.57 1216.77,1349.03 1234.23,1338.48C1235.55,1337.68 1234.67,1335.29 1233.16,1335.91C1212.34,1344.47 1200.14,1328.06 1184.8,1317.34C1174.6,1310.21 1161.81,1308.19 1149.31,1308.94C1149.17,1308.15 1149.02,1307.39 1149.07,1306.56C1149.16,1305.38 1149.76,1304.27 1150.22,1303.21C1150.83,1301.82 1151.9,1300.77 1153.07,1299.78C1169.59,1295.08 1187.23,1294.22 1203.8,1298.58C1228.15,1305 1249.7,1326.12 1258.6,1349.31C1258.85,1349.97 1259.05,1350.64 1259.28,1351.31C1259.81,1351.24 1260.37,1351.24 1260.96,1351.38C1262.02,1351.63 1263.06,1351.96 1264.09,1352.34C1263.08,1348.54 1261.84,1344.84 1260.35,1341.3C1246.77,1309.1 1210.85,1289.29 1176.83,1291.06C1161.32,1291.87 1145.89,1297.38 1131.96,1303.93C1127.18,1306.18 1106.77,1316.25 1108.6,1323.4C1108.88,1324.47 1110.27,1325.11 1111.23,1324.48ZM1144.45,1308.93C1144.48,1309.07 1144.52,1309.22 1144.56,1309.36C1144.37,1309.38 1144.18,1309.4 1143.99,1309.43C1144.14,1309.26 1144.3,1309.09 1144.45,1308.93ZM1140.93,1309.8C1140.95,1309.82 1140.96,1309.83 1140.97,1309.84C1140.93,1309.85 1140.9,1309.85 1140.86,1309.86C1140.88,1309.84 1140.91,1309.82 1140.93,1309.8ZM1135.39,1310.84C1135.9,1310.76 1136.24,1310.51 1136.5,1310.22C1136.6,1310.34 1136.72,1310.45 1136.84,1310.55C1136.34,1310.65 1135.83,1310.76 1135.33,1310.87C1135.35,1310.86 1135.37,1310.85 1135.39,1310.84ZM1119.44,1315.83C1119.53,1315.85 1119.62,1315.9 1119.71,1315.91C1119.41,1316.04 1119.11,1316.15 1118.82,1316.29C1119.02,1316.12 1119.24,1315.98 1119.44,1315.83Z" style="fill:rgb(126,134,92);fill-opacity:0.501961;fill-rule:nonzero;"/>
        <path d="M1240.03,1365.18C1238.06,1370.8 1248.47,1372.57 1248.32,1366.16C1247.96,1351.31 1272.1,1362.5 1276.54,1368.84C1282.78,1377.77 1283.56,1389.21 1281.29,1399.52C1277.16,1418.31 1262,1433.93 1248.66,1446.85C1236.15,1458.97 1222.43,1469.55 1209.1,1480.7C1207.61,1481.95 1206.06,1483.27 1204.48,1484.65C1208.38,1480.62 1212.56,1476.81 1216.66,1473.04C1228.72,1461.96 1240.86,1451.51 1250.15,1437.88C1263.08,1418.89 1269.07,1393.16 1266.98,1369.18C1266.62,1369.09 1266.25,1368.97 1265.89,1368.81C1264.79,1368.33 1263.75,1367.76 1262.73,1367.15C1264.74,1386.55 1259.86,1407.63 1251.97,1424.37C1243.67,1442 1225.47,1454.9 1211.5,1467.87C1210.89,1468.43 1210.31,1469.03 1209.71,1469.61C1210.93,1467.71 1212.08,1465.94 1213.07,1464.4C1224.69,1447.97 1233.15,1431.55 1232.66,1411.1C1233.05,1381.71 1216.19,1362.29 1193.23,1346.8L1191.19,1348.11C1193.08,1352.38 1196.09,1357.94 1196.67,1363.33C1202.3,1403.84 1146.23,1419.79 1158.76,1462.49C1162.9,1476.09 1183.28,1491.7 1185.68,1506.75C1183.01,1511.84 1181.38,1517.27 1181.6,1522.98C1181.62,1523.66 1182.53,1523.73 1182.73,1523.12C1191.34,1497.1 1214.17,1483.75 1233.97,1466.78C1250.66,1452.48 1267.27,1436.96 1278.6,1417.95C1287.48,1403.05 1292.36,1378.93 1279.15,1364.62C1269.25,1353.9 1246.11,1347.88 1240.03,1365.18Z" style="fill:rgb(126,134,92);fill-opacity:0.501961;fill-rule:nonzero;"/>
        <path d="M630.99,1477.31C633.798,1474.18 637.177,1471.61 640.668,1469.3C647.162,1465.02 654.11,1461.51 662.018,1461.33C672.113,1461.11 681.656,1468.27 683.736,1478.12C686.391,1490.67 668.609,1496.59 660.401,1500.41C658.26,1501.41 658.766,1504.86 660.994,1505.37C676.301,1508.91 695.602,1503.32 700.75,1486.94C705.236,1472.65 696.006,1458.47 685.003,1450.35C670.46,1439.62 651.303,1443.43 636.836,1451.83C631.539,1454.9 627.179,1458.83 623.499,1463.31C625.685,1468.28 627.653,1473.38 630.057,1478.22C630.375,1477.93 630.693,1477.64 630.99,1477.31Z" style="fill:rgb(126,134,92);fill-opacity:0.501961;fill-rule:nonzero;"/>
        <path d="M614.486,1607.48C614.484,1607.47 614.486,1607.47 614.484,1607.46C614.439,1607.3 614.359,1607.17 614.264,1607.05C593.53,1567.04 588.781,1519.89 558.345,1485.39C533.251,1456.96 477.641,1451.64 454.993,1485.66C453.917,1487.28 456.455,1489.13 457.713,1487.68C473.081,1469.98 496.804,1465.4 519.3,1469.56C538.855,1473.18 553.014,1487.49 562.238,1504.19C566.731,1512.33 569.956,1520.98 572.814,1529.79C566.717,1523.64 559.623,1518.51 551.73,1514.86C526.602,1503.24 496.074,1517.89 477.433,1535.21C456.515,1554.63 446.289,1583.34 423.313,1600.72C413.723,1607.98 402.31,1614.23 390.462,1616.63C382.816,1618.18 375.245,1616.59 369.679,1611C360.945,1602.23 363.872,1592.27 371.552,1587.18C373.109,1592.32 376.912,1596.39 382.843,1596.12C388.135,1595.89 393.369,1591.61 394.162,1586.29C394.609,1583.3 393.731,1580.44 391.936,1578.03C388.953,1574.04 386.378,1573.41 381.648,1574.32C378.418,1574.95 375.138,1576.55 372.222,1578.77C356.134,1586.85 358.852,1613.11 378.202,1620.14C398.397,1627.48 426.663,1606.77 439.515,1593.14C447.842,1584.31 455.105,1574.49 462.527,1564.91C472.485,1554.09 483.172,1544.22 497.67,1539.57C517.78,1533.12 542.409,1537.81 555.101,1555.25C564.145,1567.68 570.12,1582.16 578.189,1595.2C587.837,1610.8 600.736,1617.88 618.258,1621.58C620.093,1621.97 621.715,1619.98 620.664,1618.3C618.441,1614.77 616.402,1611.15 614.486,1607.48Z" style="fill:rgb(126,134,92);fill-opacity:0.501961;fill-rule:nonzero;"/>
    </g>
</svg>
