<?xml version="1.0" encoding="UTF-8" standalone="no"?>
<!DOCTYPE svg PUBLIC "-//W3C//DTD SVG 1.1//EN" "http://www.w3.org/Graphics/SVG/1.1/DTD/svg11.dtd">
<svg width="100%" height="100%" viewBox="0 0 278 1154" version="1.1" xmlns="http://www.w3.org/2000/svg" xmlns:xlink="http://www.w3.org/1999/xlink" xml:space="preserve" xmlns:serif="http://www.serif.com/" style="fill-rule:evenodd;clip-rule:evenodd;stroke-linejoin:round;stroke-miterlimit:1.41421;">
    <g transform="matrix(1,0,0,1,-1836.31,-259.148)">
        <path d="M2003.58,923.118C1975.39,878.048 1944.21,831.464 1930.85,780.227C1923.98,792.983 1916.19,805.185 1908.15,817.248C1916.34,840.974 1927.37,863.777 1938.28,884.134C1950.86,907.617 1964.93,930.369 1978.71,953.254C1987.36,943.531 1994.17,932.205 2003.58,923.118Z" style="fill:rgb(126,134,92);fill-opacity:0.501961;fill-rule:nonzero;"/>
        <path d="M1924.8,735.512C1924.91,735.299 1925.06,735.14 1925.18,734.947C1925.94,708.918 1933.73,682.338 1950.74,663.693C1960.17,653.363 1973.65,645.568 1988.26,641.322C1967.13,662.75 1969.23,695.278 1974.16,724.749C1979.6,757.201 1999.63,768.178 2026.2,779.255C2024.39,777.198 2022.65,775.069 2021.13,772.775C2020.44,771.733 2019.88,770.674 2019.3,769.621C1988.48,743.201 1992.75,698.62 1999.31,660.112C1999.53,658.848 2001.67,659.075 2001.55,660.36C1999.73,681.083 1995.59,704.434 2000.32,725.01C2002.87,736.135 2007.56,744.567 2013.55,752.016C2012.2,746.413 2012.74,740.452 2014.35,734.55C2014.38,734.278 2014.4,734.011 2014.44,733.738C2014.71,731.926 2015.29,730.443 2016.06,729.229C2017.24,726.017 2018.62,722.862 2020.08,719.847C2026.06,707.469 2032.08,695.263 2029.36,681.136C2026.64,667.01 2018.21,647.781 2005.25,638.116C2015.46,637.205 2025.65,638.112 2034.96,641.256C2037.37,644.641 2038.3,657.968 2040.74,662.369C2044.88,669.834 2051.15,675.801 2057.45,681.418C2058.07,681.968 2058.68,682.512 2059.29,683.058C2059.59,673.655 2060.12,664.261 2060.9,654.885C2057.23,650.451 2053.46,646.094 2049.53,641.896C2048.75,641.057 2049.94,639.801 2050.78,640.605C2054.39,644.063 2057.87,647.416 2061.3,650.765C2062,643.08 2062.83,635.404 2063.89,627.756C2053.84,626.217 2043.64,627.746 2035.13,633.592C2035.11,633.604 2035.1,633.621 2035.08,633.635C2016.69,625.352 1996.59,625.658 1977.61,631.806C1977.43,630.774 1977.29,629.728 1977.02,628.74C1986.49,618.561 1994.55,607.218 1995.64,593.187C1996.62,580.744 1994.1,570.429 1989.26,559.093C1980.97,539.684 1976.43,518.346 1984.48,499.183C1978.23,504.399 1973.53,510.947 1972.36,520.846C1970.74,534.572 1973.05,548.381 1975.76,561.81C1979.74,581.516 1984.72,604.579 1973.2,622.579C1972.54,623.608 1970.93,622.764 1971.52,621.662C1987.88,590.727 1968.04,562.603 1967.01,531.164C1966.43,513.068 1973.95,496.469 1988.27,487.357C1963.19,495.146 1949.57,522.056 1942.05,545.447C1937.1,560.849 1937.74,576.363 1942.63,591.643C1947.68,607.431 1961.06,617.69 1967.02,632.474C1965.26,634.469 1963.49,636.442 1961.73,638.409C1942.64,648.165 1925.7,663.525 1914.25,681.318C1894.29,712.337 1891.99,747.224 1898.51,781.707C1907.14,766.246 1916.45,751.156 1924.8,735.512Z" style="fill:rgb(126,134,92);fill-opacity:0.501961;fill-rule:nonzero;"/>
        <path d="M2068.95,824.252C2068.89,823.763 2068.19,822.816 2067.72,822.026C2066.81,821.199 2065.88,820.389 2064.94,819.586C2063.48,819.412 2062.23,819.693 2062.2,821.131C2061.02,867.48 2030.59,896.402 2004.21,931.276C1991.17,948.514 1978.63,966.422 1968.34,985.429C1970.72,985.827 1973.02,986.617 1975.01,988.147C1975.64,988.631 1976.22,989.14 1976.79,989.653C1990.93,961.151 2010.43,935.011 2029.85,910.356C2038.35,899.573 2045.97,889.148 2052.2,878.314C2052.21,878.29 2052.23,878.298 2052.25,878.273C2052.38,878.013 2052.52,877.795 2052.65,877.548C2052.93,877.064 2053.21,876.58 2053.48,876.095C2062.78,860.582 2072.72,867.807 2081.37,878.143C2088.82,897.532 2095.54,916.977 2098.12,937.714C2097.81,941.757 2097.32,945.8 2096.6,949.831C2091.74,976.967 2076.16,1001.67 2058.55,1024.08C2046.86,996.725 2032.16,970.458 2017.17,945.292C2017.15,945.25 2017.12,945.203 2017.09,945.161C2009.96,956.261 2001.42,966.337 1992.08,975.848C2007.13,1001.74 2021.06,1028.16 2031.41,1056.34C2031.39,1056.36 2031.36,1056.39 2031.34,1056.42C2009.66,1081.38 1987.68,1106.97 1968.77,1133.95C1959.33,1102.48 1952.19,1071.55 1959.63,1037.18C1956.07,1036.53 1952.62,1035.86 1949.4,1035.76C1949.04,1035.75 1948.69,1035.7 1948.35,1035.66C1948.12,1036.57 1947.86,1037.46 1947.65,1038.37C1938.94,1076.03 1949.34,1110.54 1960.8,1145.72C1962.5,1150.94 1938.87,1183.93 1935.72,1190.94C1928.88,1206.15 1923.4,1221.95 1919.94,1238.29C1911.94,1275.96 1910.12,1322.48 1924.94,1358.85C1937.57,1389.83 1961.61,1411.62 1995.83,1412.53C2027.82,1413.39 2049.93,1384.77 2045.93,1354.17C2043.33,1334.33 2023.09,1316.69 2002.74,1319.8C1979.51,1323.34 1968.91,1360.51 1993.48,1370.1C2002.24,1373.53 2006.99,1361.38 1998.14,1358.05C1980.14,1351.27 2001.41,1325.93 2014.84,1328.31C2029.09,1330.84 2037.4,1345.14 2038.99,1358.34C2044.56,1404.74 1987.71,1413.96 1958.82,1391.25C1927.85,1366.92 1925.39,1322.79 1935.66,1288.19C1944.49,1258.44 1961.14,1229.92 1977.66,1203.13C1983.72,1228.21 1987.73,1253.41 1988.97,1279.82C1988.42,1280.32 1987.89,1280.83 1987.33,1281.33C1982.26,1285.89 1988.96,1293.07 1994.45,1290.25C2055.21,1258.95 2082.44,1197.87 2082.85,1131.79C2082.99,1109.2 2079.42,1087.24 2073.43,1065.88C2086.29,1045.66 2097.57,1024.65 2105.65,1002.11C2127.96,939.823 2099.89,878.105 2068.95,824.252ZM2066.8,840.022C2066.81,839.98 2066.82,839.942 2066.83,839.897C2066.85,839.938 2066.86,839.978 2066.87,840.02C2066.85,840.02 2066.82,840.022 2066.8,840.022ZM2068.44,859.519C2068.67,858.951 2068.89,858.381 2069.11,857.809C2069.35,858.437 2069.56,859.069 2069.74,859.7C2069.3,859.613 2068.86,859.555 2068.44,859.519ZM2045.95,1184.81C2039.05,1220.84 2020.14,1249.82 1994.46,1274.66C1995.42,1246.18 1991.88,1218.48 1985.27,1190.85C1985.42,1190.6 1985.58,1190.35 1985.74,1190.1C2003.53,1161.44 2024.91,1134.29 2045.28,1106.54C2049.97,1132.42 2050.88,1159.06 2045.95,1184.81Z" style="fill:rgb(126,134,92);fill-opacity:0.501961;fill-rule:nonzero;"/>
        <path d="M1947.88,976.039C1954.23,966.734 1960.68,957.482 1967.13,948.235C1966.26,946.759 1965.38,945.286 1964.54,943.804C1964.29,943.384 1964.06,942.962 1963.82,942.543C1957.85,953.049 1952.46,964.027 1947.88,976.039Z" style="fill:rgb(126,134,92);fill-opacity:0.501961;fill-rule:nonzero;"/>
        <path d="M2081.96,684.751C2081.29,690.783 2080.63,696.815 2080.05,702.854C2090.45,714.128 2098.64,726.722 2102.19,743.609C2099.95,722.476 2092.52,702.858 2081.96,684.751Z" style="fill:rgb(126,134,92);fill-opacity:0.501961;fill-rule:nonzero;"/>
        <path d="M2104.04,738.475C2110.9,710.635 2118.06,678.928 2102.86,653.392C2098.86,646.675 2092.91,640.807 2085.97,636.326C2085.68,649.393 2084.42,662.389 2083,675.371C2086.48,680.305 2089.69,685.559 2092.44,691.447C2099.37,706.302 2102.83,722.242 2104.04,738.475Z" style="fill:rgb(126,134,92);fill-opacity:0.501961;fill-rule:nonzero;"/>
        <path d="M1943.39,1104C1948.67,1073.56 1923.1,1047.92 1894.12,1048.28C1889.15,1041.11 1884.95,1033.69 1881.47,1026.07C1892.05,1034.37 1905.32,1035.89 1920.34,1033.58C1935.01,1031.32 1947.51,1026.04 1962.67,1027.83C1977.03,1029.52 1996.91,1033.8 1999.14,1049.37C1999.43,1051.41 1999.25,1057.27 1999.76,1054.93C2007.01,1021.86 1983.88,990.05 1950.26,986.775C1927.67,984.573 1889.87,985.976 1874.23,1006.62C1848.97,920.386 1901.62,813.917 1944.79,740.577C1949.99,731.729 1955.19,722.947 1960.34,714.173C1959.92,707.549 1960.03,701.039 1960.64,694.558C1945.11,721.498 1928.67,747.999 1913.99,775.287C1877.06,843.949 1840.28,944.547 1870.13,1021.3C1864.64,1035.27 1855.38,1045.74 1845.95,1058.72C1835.37,1073.29 1834.42,1087.83 1838.66,1104.87C1839.27,1107.3 1839.11,1105.21 1839.72,1102.93C1846.71,1077.03 1875.56,1060.74 1876.91,1036.16C1881.03,1043.92 1885.94,1051.36 1891.73,1058.43C1896.95,1080.96 1875.25,1106.84 1873.1,1129.7C1871.67,1145 1872.22,1161.16 1878.78,1175.39C1884.16,1187.06 1893.68,1193.38 1902,1201.74C1901.36,1196.05 1901.46,1190.38 1902.46,1184.69C1900.94,1156.82 1938.48,1132.28 1943.39,1104ZM1881.79,1012.64C1919.68,1013.41 1953.71,987.442 1985.48,1019.65C1985.9,1020.07 1985.38,1020.85 1984.85,1020.51C1951.49,998.941 1918.23,1016.09 1881.83,1014.67C1880.52,1014.62 1880.47,1012.61 1881.79,1012.64ZM1892.9,1185.58C1893.12,1186.73 1891.41,1187.26 1891.12,1186.08C1886.1,1166.17 1889.79,1147.7 1894.16,1128.03C1898.53,1108.4 1909.54,1077.86 1896.6,1059.87C1896.19,1059.31 1897.05,1058.69 1897.53,1059.14C1909.39,1070.19 1907.07,1088.69 1905,1103.29C1900.9,1132.19 1887.31,1155.54 1892.9,1185.58Z" style="fill:rgb(126,134,92);fill-opacity:0.501961;fill-rule:nonzero;"/>
        <path d="M2028.23,427.15C2029.29,429.699 2030.29,432.278 2031.27,434.87C2031.52,442.946 2031.61,451.025 2031.4,459.103C2030.21,504.319 2021.92,549.256 2008.37,592.363C2005.46,601.633 2002.13,610.711 1998.49,619.64C1999.13,619.562 1999.73,619.434 2000.41,619.412C2000.52,619.407 2000.63,619.428 2000.74,619.428C2001.64,619.089 2002.54,618.74 2003.44,618.417C2005.79,617.575 2007.79,617.863 2009.34,618.807C2014.79,605.29 2019.61,591.409 2023.54,576.991C2026.98,564.387 2029.67,551.664 2031.75,538.857C2032.77,532.544 2040.27,522.19 2046.64,520.627C2056.38,518.239 2058.85,527.399 2061.23,535.123C2066.83,553.297 2067.55,571.617 2067.6,590.483C2067.68,625.451 2067.23,660.733 2063.69,695.537C2056.94,761.732 2037.73,835.538 1998.59,890.28C1997.65,891.597 1996.74,892.879 1995.8,894.183C1997.21,896.089 1998.66,897.954 2000.19,899.772C2024.8,862.084 2046.55,822.912 2058.79,778.687C2078.95,705.81 2082.66,626.521 2071.88,551.292C2070.53,541.872 2068.95,532.514 2067.15,523.242C2064.25,508.341 2060.66,493.644 2056.64,479.071C2051.91,457.583 2044.63,436.93 2036.83,416.446C2034.26,409.087 2031.66,401.737 2029.02,394.401C2028.93,394.817 2028.9,395.271 2028.83,395.701C2020.87,375.083 2013.11,354.396 2007.7,332.932C2001.8,309.501 1998.15,276.501 2027.02,267.869C2053.98,259.806 2063.37,312.633 2036.12,314.952C2035.55,315 2035.55,315.876 2036.13,315.848C2057.09,314.817 2062.07,291.975 2053.65,274.893C2041.48,250.176 2010.33,257.207 1997.42,277.733C1980.47,304.67 1997.97,348.654 2007.34,375.004C2013.62,392.63 2021.02,409.889 2028.23,427.15Z" style="fill:rgb(126,134,92);fill-opacity:0.501961;fill-rule:nonzero;"/>
    </g>
</svg>
